<svg id="e2sOx6PJNAT1" xmlns="http://www.w3.org/2000/svg" xmlns:xlink="http://www.w3.org/1999/xlink" viewBox="0 0 640 480" shape-rendering="geometricPrecision" text-rendering="geometricPrecision"><path d="M239.1768,122.73153c-38.7354,12.9118-111.62976,17.18188-136.20206,56.87558-39.80959,64.3078-47.14694,122.85619,11.97381,172.12348c27.17481,22.64568,51.54434,39.74583,88.30683,41.90833c156.38191,9.19894,191.63988-249.67573,40.4116-263.42376-22.38665-2.03515-43.71057-.79414-62.86249,11.97381" transform="translate(113.834747-18.302197)" fill="none" stroke="#cc635b" stroke-width="12" stroke-miterlimit="8"/><path d="M417.28718,145.18241c-4.27348,6.41023-20.46038,23.64673-4.49018,28.43779c9.47142,2.84142,19.75322-2.50641,16.46398-13.47053-8.59282-28.64273-48.1422,10.60057-11.97381-7.48363" transform="translate(-124.144671 32.586484)" fill="none" stroke="#cc635b" stroke-width="12" stroke-miterlimit="8"/><path d="M451.71188,149.67259c0,2.49454,0,4.98909,0,7.48363c0,2.99345-1.58653,6.44191,0,8.98036c7.98463,12.77541,35.61671-24.21649,2.99345-20.95416-2.53132.25313-5.55212-.15885-7.48363,1.49673-7.61688,6.52876-1.13759,9.33949,2.99345,13.47053" transform="translate(-88.846886 23.71692)" fill="none" stroke="#cc635b" stroke-width="12" stroke-miterlimit="8"/><path d="M358.91487,341.25351c9.45544,12.60725,27.50194,35.11056,43.40505,40.4116c42.71488,14.23829,96.24647-15.7506,104.77081-58.37231" transform="translate(-98.700331-70.687603)" fill="none" stroke="#cc635b" stroke-width="12" stroke-miterlimit="8"/></svg>