<svg id="ei5W1SD6n8T1" xmlns="http://www.w3.org/2000/svg" xmlns:xlink="http://www.w3.org/1999/xlink" viewBox="0 0 640 480" shape-rendering="geometricPrecision" text-rendering="geometricPrecision"><path d="M239.1768,122.73153c-38.7354,12.9118-111.62976,17.18188-136.20206,56.87558-39.80959,64.3078-47.14694,122.85619,11.97381,172.12348c27.17481,22.64568,51.54434,39.74583,88.30683,41.90833c156.38191,9.19894,191.63988-249.67573,40.4116-263.42376-22.38665-2.03515-43.71057-.79414-62.86249,11.97381" transform="matrix(1.38194 0 0 1.383882 35.09199-117.459761)" fill="none" stroke="#718da4" stroke-width="20" stroke-miterlimit="8"/><path d="M261.62769,188.58747c-24.56515,0-22.73451,37.60578,2.99345,32.92797c23.41681-4.2576,17.88474-29.65037-5.9869-34.4247" transform="matrix(.999996 0 0 0.955215 0.001048 9.158269)" fill="none" stroke="#718da4" stroke-width="20"/><path d="M372.38541,161.6464c-22.47335,8.98934-9.87416,42.20626,13.47053,34.42469c26.97042-8.99014-.52605-35.92142-17.96071-35.92142" transform="translate(.000001 0)" fill="none" stroke="#718da4" stroke-width="20"/><path d="M376.81694,192.38141c-6.47423,0-8.446961-10.238556-1.50375-12.03001c7.570744-1.953367,19.028412-23.105198,2.005,13.03251" transform="translate(0 0.000001)" fill="none" stroke="#718da4" stroke-width="20"/><path d="M251.43543,218.78942c3.21307-3.21307,21.35467-18.71028,10.73794-22.95697" fill="none" stroke="#718da4" stroke-width="20"/><path d="M253.65708,206.57039c3.34475,1.3379,10.4315,3.28784,11.10821-1.11082c2.72053-17.68343-3.70274-2.22164-3.70274-2.22164" transform="translate(-3.524071 1.722822)" fill="none" stroke="#718da4" stroke-width="20"/><path d="M244.81434,320.29059c7.98398,4.79039,13.02716,12.90113,20.65712,17.4791c41.69158,25.01495,114.53306-3.80007,123.94269-50.84828" transform="matrix(1.435909 0 0 1.304413-117.638357-105.969798)" fill="none" stroke="#718da4" stroke-width="20"/></svg>